<svg width="2996" height="1259" viewBox="0 0 2996 1259" fill="none" xmlns="http://www.w3.org/2000/svg">
<path opacity="0.2" d="M2038.57 1009.98C2642.56 986.442 2922.19 1084.44 2996 1118.22V1259L0 1259V990.583C491.71 770.344 1133 1052.57 1616.51 1028.75C1908.62 1014.36 1894.07 1015.61 2038.57 1009.98Z" fill="url(#paint0_linear)"/>
<path d="M2071.83 159.95C2071.83 159.95 1903.32 245.797 1819.27 378.08C1735.23 510.364 1750.37 892.677 1852.5 1019C1954.63 1145.32 2142.06 959.48 2305.5 1039.5C2468.94 1119.52 2648.54 1060.16 2725.82 890.623C2803.1 721.088 2686.57 657.726 2666.55 461.525C2646.53 265.323 2469.66 -21.9731 2071.83 159.95Z" fill="#FFCECE"/>
<path d="M2071.83 159.95C2071.83 159.95 1903.32 245.797 1819.27 378.08C1735.23 510.364 1750.37 892.677 1852.5 1019C1954.63 1145.32 2142.06 959.48 2305.5 1039.5C2468.94 1119.52 2648.54 1060.16 2725.82 890.623C2803.1 721.088 2686.57 657.726 2666.55 461.525C2646.53 265.323 2469.66 -21.9731 2071.83 159.95Z" fill="#FFCECE"/>
<path d="M1974.66 841.74C1981.34 839.516 1993.17 828.64 1993.17 828.618C1993.17 828.596 1983.65 823.08 1983 822.814C1975.51 819.655 1959.16 817.965 1953.22 824.882C1952.29 826.059 1951.6 827.419 1951.22 828.875C1950.84 830.331 1950.76 831.851 1951 833.338C1951.24 834.824 1951.79 836.245 1952.61 837.508C1953.42 838.771 1954.5 839.849 1955.76 840.672C1961.01 844.409 1968.88 843.608 1974.66 841.74Z" fill="#9C9C9C"/>
<path d="M2097.9 736.9C2098.05 736.9 2093 727.048 2092.6 726.447C2088.15 719.775 2075.39 709.256 2066.63 711.747C2065.18 712.201 2063.85 712.954 2062.71 713.957C2061.58 714.96 2060.67 716.19 2060.04 717.567C2059.41 718.945 2059.08 720.44 2059.06 721.954C2059.05 723.468 2059.35 724.969 2059.95 726.358C2062.33 732.319 2069.34 736.01 2075.21 737.634C2082.11 739.547 2097.87 736.922 2097.9 736.9Z" fill="#9C9C9C"/>
<path d="M2009.56 872.676C2015.3 868.917 2023.21 856.352 2023.84 855.351C2031.01 859.894 2038.49 863.95 2046.21 867.494C2050.66 869.584 2055.28 871.564 2059.91 873.476C2057.69 872.898 2055.66 872.431 2055.46 872.387C2047.39 871.319 2031.18 874.01 2027.28 882.239C2026.67 883.629 2026.36 885.132 2026.37 886.65C2026.39 888.168 2026.72 889.667 2027.35 891.048C2027.98 892.43 2028.89 893.662 2030.03 894.666C2031.17 895.67 2032.51 896.422 2033.96 896.873C2040.01 899.097 2047.3 896.183 2052.48 892.847C2057.66 889.511 2064.6 878.858 2066.4 876.034L2071.74 878.258C2080.3 881.661 2088.84 884.93 2097.14 888.577C2100.05 889.823 2102.88 891.179 2105.72 892.491C2103.72 892.002 2102.05 891.602 2101.79 891.58C2093.71 890.512 2077.52 893.203 2073.61 901.432C2073 902.821 2072.69 904.322 2072.7 905.839C2072.71 907.355 2073.04 908.852 2073.67 910.232C2074.3 911.612 2075.22 912.843 2076.36 913.844C2077.5 914.846 2078.83 915.595 2080.28 916.044C2086.35 918.268 2093.74 915.354 2098.81 912.018C2103.88 908.682 2110.24 899.075 2112.42 895.739C2115.27 897.184 2118.13 898.63 2120.85 900.187C2122.67 901.276 2124.52 902.188 2126.3 903.389L2131.59 906.792C2134.86 909.016 2138.26 911.418 2141.42 913.731C2143.64 915.332 2145.69 916.889 2147.78 918.446C2144.89 917.178 2139.17 914.776 2138.66 914.643C2130.86 912.419 2114.42 912.574 2109.33 920.114C2108.51 921.39 2107.97 922.824 2107.75 924.322C2107.53 925.82 2107.62 927.348 2108.03 928.807C2108.43 930.266 2109.15 931.622 2110.11 932.788C2111.08 933.953 2112.28 934.901 2113.64 935.57C2119.29 938.617 2126.99 936.927 2132.57 934.392C2138.64 931.612 2148.14 920.87 2149.2 919.513C2152.65 922.115 2155.99 924.673 2159.08 927.141C2168.11 934.28 2175.62 940.708 2181.32 945.734L2185.77 941.686C2179.81 936.66 2171.84 930.122 2162.26 922.871C2158.77 920.225 2154.99 917.445 2151.14 914.643C2153.19 910.533 2155 906.308 2156.56 901.988C2163.39 902.677 2176.25 899.141 2177.92 898.674C2179.36 902.744 2180.72 906.725 2181.94 910.484C2185.45 921.226 2188.15 930.5 2190.13 937.861L2195.11 933.413C2193.04 926.541 2190.37 918.156 2187.06 908.704C2185.61 904.568 2183.99 900.187 2182.25 895.694C2183.79 894.827 2196.15 887.621 2200.04 882.194C2203.58 877.257 2206.72 869.985 2204.8 863.824C2204.4 862.367 2203.69 861.011 2202.73 859.843C2201.77 858.676 2200.58 857.723 2199.23 857.046C2197.88 856.369 2196.4 855.983 2194.89 855.913C2193.38 855.843 2191.87 856.091 2190.46 856.641C2182.07 860.221 2178.74 876.301 2179.47 884.396C2179.47 884.885 2180.58 890.023 2181.3 893.292C2180.58 891.446 2179.92 889.667 2179.07 887.799C2177.6 884.063 2176.02 880.393 2174.36 876.434C2173.47 874.544 2172.6 872.653 2171.69 870.741C2170.78 868.828 2169.71 866.893 2168.71 864.936C2166.33 860.488 2163.68 856.04 2160.9 851.592C2164.17 850.302 2175.67 845.543 2179.94 841.184C2184.21 836.825 2188.39 830.064 2187.41 823.77C2187.24 822.267 2186.75 820.817 2185.98 819.515C2185.21 818.213 2184.18 817.088 2182.94 816.213C2181.71 815.338 2180.31 814.732 2178.82 814.437C2177.34 814.141 2175.81 814.161 2174.33 814.496C2165.44 816.72 2159.77 832.154 2159.28 840.272C2159.28 840.761 2159.55 846.633 2159.77 849.857C2158.08 847.233 2156.41 844.609 2154.63 842.007C2149.47 834.512 2144 827.084 2138.6 819.655C2136.93 817.431 2135.3 815.096 2133.68 812.806C2134.84 812.361 2148.63 807.001 2153.41 802.13C2157.65 797.682 2161.86 791.01 2160.9 784.694C2160.73 783.19 2160.24 781.74 2159.47 780.438C2158.69 779.136 2157.66 778.011 2156.42 777.136C2155.18 776.261 2153.78 775.656 2152.29 775.361C2150.81 775.065 2149.28 775.085 2147.8 775.42C2138.91 777.644 2133.24 793.079 2132.75 801.196C2132.75 801.819 2133.15 810.248 2133.37 812.316C2129.77 807.268 2126.23 802.219 2122.94 797.104C2118.45 790.224 2114.42 783.055 2110.88 775.643C2111.42 775.442 2125.83 769.905 2130.72 764.901C2134.97 760.453 2139.17 753.781 2138.22 747.487C2138.05 745.984 2137.56 744.534 2136.79 743.232C2136.02 741.93 2134.98 740.805 2133.75 739.929C2132.52 739.054 2131.11 738.449 2129.63 738.153C2128.14 737.858 2126.61 737.878 2125.14 738.213C2116.24 740.437 2110.57 755.871 2110.08 763.989C2110.08 764.523 2110.37 770.95 2110.59 773.997L2110.11 774.13C2106.72 766.582 2104.03 758.744 2102.05 750.711C2100.92 746.263 2100.08 742.016 2099.34 737.857C2102.12 737.101 2114.91 733.52 2119.76 729.495C2124.61 725.469 2129.37 719.42 2129.12 712.992C2129.11 711.479 2128.78 709.985 2128.15 708.608C2127.53 707.23 2126.62 705.999 2125.48 704.995C2124.35 703.991 2123.02 703.236 2121.58 702.778C2120.14 702.321 2118.62 702.171 2117.11 702.339C2108.1 703.607 2100.7 718.286 2099.32 726.314C2099.32 726.737 2098.96 731.252 2098.81 734.543C2098.52 732.653 2098.16 730.718 2097.92 728.894C2096.96 722.066 2096.49 715.772 2096.12 710.19C2095.94 707.01 2095.85 704.119 2095.78 701.428C2098.12 699.204 2107.5 690.308 2109.95 684.681C2112.4 679.054 2113.84 671.337 2110.66 665.732C2109.96 664.391 2108.98 663.213 2107.79 662.276C2106.6 661.338 2105.22 660.661 2103.76 660.29C2102.29 659.919 2100.76 659.861 2099.26 660.12C2097.77 660.38 2096.35 660.951 2095.09 661.796C2087.67 667.089 2087.87 683.524 2090.33 691.286C2090.56 691.953 2095.07 702.05 2095.2 701.939L2095.34 701.806C2095.34 704.386 2095.34 707.166 2095.52 710.212C2095.76 715.817 2096.07 722.155 2096.9 729.027C2097.7 736.432 2098.93 743.784 2100.59 751.045C2102.4 759.197 2104.95 767.169 2108.19 774.864L2108.33 775.131C2106.59 773.107 2101.54 767.614 2101.1 767.236C2094.96 761.898 2079.95 755.204 2072.19 759.919C2070.91 760.736 2069.82 761.812 2068.99 763.078C2068.16 764.344 2067.61 765.77 2067.37 767.265C2067.13 768.759 2067.2 770.288 2067.59 771.75C2067.98 773.213 2068.68 774.577 2069.63 775.754C2073.5 780.891 2081.22 782.604 2087.31 782.626C2094.16 782.626 2107.68 776.51 2108.77 775.954C2112.25 783.707 2116.25 791.219 2120.74 798.439C2123.32 802.642 2126.05 806.823 2128.85 810.96C2127.3 809.269 2125.9 807.757 2125.67 807.557C2119.54 802.242 2104.52 795.525 2096.76 800.24C2095.49 801.057 2094.4 802.133 2093.57 803.399C2092.74 804.665 2092.19 806.091 2091.94 807.586C2091.7 809.08 2091.78 810.609 2092.17 812.071C2092.56 813.534 2093.25 814.898 2094.2 816.075C2098.05 821.235 2105.79 822.925 2111.88 822.947C2117.98 822.969 2129.68 817.965 2132.75 816.609C2133.84 818.188 2134.97 819.789 2136.02 821.368C2141.26 828.907 2146.53 836.447 2151.58 843.964C2153.34 846.633 2154.96 849.301 2156.59 851.97C2155.21 850.458 2154.03 849.212 2153.83 849.035C2147.69 843.697 2132.68 837.003 2124.92 841.718C2123.64 842.536 2122.56 843.614 2121.73 844.881C2120.9 846.147 2120.35 847.574 2120.11 849.069C2119.87 850.563 2119.95 852.091 2120.34 853.553C2120.73 855.014 2121.43 856.377 2122.38 857.552C2126.23 862.69 2133.97 864.402 2140.04 864.425C2146.11 864.447 2156.72 859.977 2160.37 858.331C2161.97 861.111 2163.57 863.891 2164.97 866.671C2165.91 868.584 2166.93 870.363 2167.73 872.342C2168.53 874.321 2169.44 876.212 2170.26 878.102C2171.75 881.839 2173.29 885.664 2174.71 889.333C2175.67 891.869 2176.54 894.315 2177.4 896.762C2175.71 894.093 2172.24 888.955 2171.91 888.555C2167.06 883.265 2160.94 879.313 2154.12 877.079C2153.61 876.462 2153.05 875.895 2152.43 875.389C2151.29 874.393 2149.95 873.648 2148.51 873.202C2147.06 872.755 2145.54 872.618 2144.04 872.798C2142.54 872.979 2141.09 873.473 2139.79 874.249C2138.5 875.024 2137.37 876.065 2136.5 877.302C2131.48 884.908 2137.57 900.164 2142.66 906.525C2142.95 906.903 2146.67 910.595 2149.05 912.886L2144.02 909.616C2140.75 907.392 2137.35 905.168 2133.84 902.744L2128.48 899.453C2126.7 898.318 2124.7 897.34 2122.78 896.272C2118.33 893.87 2113.69 891.646 2108.97 889.6C2110.97 886.731 2117.87 876.434 2119.09 870.429C2120.31 864.425 2120.02 856.552 2115.73 851.77C2114.76 850.613 2113.55 849.674 2112.19 849.015C2110.83 848.355 2109.34 847.989 2107.83 847.941C2106.32 847.893 2104.81 848.163 2103.41 848.735C2102.01 849.306 2100.74 850.166 2099.7 851.259C2093.58 857.931 2097.3 874.01 2101.34 881.06C2101.61 881.505 2105.08 886.22 2107.06 888.777C2104.21 887.532 2101.37 886.264 2098.45 885.086C2090 881.683 2081.35 878.414 2072.74 875.278C2070.1 874.299 2067.47 873.276 2064.85 872.275C2065.58 871.275 2074.12 859.198 2075.41 852.482C2076.57 846.521 2076.37 838.604 2072.05 833.822C2071.08 832.666 2069.87 831.727 2068.51 831.067C2067.15 830.407 2065.66 830.041 2064.15 829.993C2062.64 829.945 2061.13 830.215 2059.73 830.787C2058.33 831.359 2057.06 832.218 2056.02 833.311C2049.9 839.983 2053.62 856.062 2057.69 863.112C2057.97 863.646 2063 870.429 2064.36 872.008C2058.58 869.784 2052.84 867.561 2047.26 865.092C2039.72 861.829 2032.41 858.069 2025.37 853.838C2025.7 853.371 2034.69 840.806 2036 833.934C2037.14 827.973 2036.94 820.056 2032.64 815.274C2031.67 814.117 2030.46 813.179 2029.1 812.519C2027.74 811.859 2026.25 811.493 2024.74 811.445C2023.23 811.397 2021.72 811.667 2020.32 812.239C2018.92 812.81 2017.66 813.67 2016.61 814.763C2010.49 821.435 2014.21 837.514 2018.25 844.564C2018.52 845.031 2022.35 850.213 2024.24 852.637L2023.88 853.015C2016.9 848.577 2010.34 843.524 2004.27 837.915C2000.86 834.868 1997.79 831.776 1994.88 828.685C1996.79 826.461 2005.42 816.52 2007.31 810.448C2009.2 804.377 2009.76 796.748 2006.02 791.544C2005.17 790.29 2004.07 789.229 2002.79 788.428C2001.5 787.627 2000.07 787.105 1998.57 786.895C1997.07 786.685 1995.54 786.793 1994.09 787.211C1992.63 787.628 1991.28 788.347 1990.12 789.32C1983.32 795.369 1985.25 811.694 1988.5 819.144C1988.68 819.544 1990.94 823.459 1992.63 826.283C1991.34 824.882 1989.99 823.459 1988.76 822.08C1984.32 816.92 1980.34 811.916 1976.95 807.446C1975.04 804.888 1973.37 802.553 1971.82 800.351C1972.6 797.238 1975.53 784.672 1974.42 778.556C1973.31 772.44 1970.28 765.212 1964.54 762.365C1963.22 761.637 1961.76 761.196 1960.25 761.07C1958.74 760.945 1957.23 761.138 1955.8 761.638C1954.38 762.137 1953.07 762.931 1951.97 763.968C1950.87 765.006 1950 766.263 1949.42 767.658C1946.15 776.154 1955.38 789.743 1961.7 794.858C1962.25 795.303 1971.59 801.219 1971.64 801.063C1971.64 800.996 1971.64 800.929 1971.64 800.863C1973.08 803.087 1974.66 805.311 1976.42 807.802C1979.71 812.25 1983.49 817.454 1987.96 822.725C1992.72 828.461 1997.81 833.919 2003.2 839.071C2009.21 844.822 2015.73 850.032 2022.66 854.639L2022.92 854.795C2020.37 854.061 2013.12 852.259 2012.54 852.193C2004.47 851.125 1988.27 853.816 1984.36 862.045C1983.75 863.435 1983.44 864.938 1983.45 866.456C1983.46 867.974 1983.79 869.473 1984.42 870.854C1985.05 872.236 1985.97 873.468 1987.11 874.472C1988.25 875.476 1989.58 876.228 1991.03 876.679C1997.1 878.858 2004.49 876.034 2009.56 872.676Z" fill="#9C9C9C"/>
<path d="M2425.65 308.491C2430.41 316.453 2447.55 328.129 2447.58 328.129C2447.6 328.129 2451.85 314.496 2452.02 313.584C2453.85 303.198 2451.27 282.025 2440.9 276.51C2439.14 275.641 2437.22 275.153 2435.26 275.077C2433.29 275.001 2431.34 275.339 2429.51 276.069C2427.69 276.799 2426.04 277.905 2424.67 279.314C2423.31 280.724 2422.25 282.405 2421.58 284.249C2418.35 291.989 2421.6 301.73 2425.65 308.491Z" fill="#9C9C9C"/>
<path d="M2593.8 434.236C2593.8 434.436 2604.92 425.207 2605.52 424.539C2612.8 416.867 2622.31 397.851 2616.64 387.421C2615.65 385.724 2614.32 384.255 2612.72 383.109C2611.13 381.963 2609.31 381.165 2607.38 380.769C2605.46 380.372 2603.47 380.386 2601.56 380.807C2599.64 381.229 2597.83 382.05 2596.25 383.217C2589.38 387.955 2586.73 397.874 2586.35 405.747C2585.93 414.998 2593.8 434.214 2593.8 434.236Z" fill="#9C9C9C"/>
<path d="M2396.53 361.578C2402.96 367.739 2421.15 374.144 2422.6 374.633C2418.93 385.032 2415.96 395.664 2413.7 406.458C2412.35 412.73 2411.17 419.113 2410.08 425.518C2410.08 422.516 2410.08 419.825 2410.08 419.447C2409.1 408.949 2401.03 389.2 2389.48 386.643C2387.56 386.267 2385.57 386.302 2383.65 386.746C2381.74 387.189 2379.94 388.031 2378.37 389.217C2376.81 390.402 2375.51 391.905 2374.56 393.626C2373.61 395.348 2373.03 397.25 2372.87 399.208C2371.89 407.504 2377.63 416.044 2383.32 421.448C2389.02 426.852 2404.5 432.768 2408.59 434.236C2408.19 436.683 2407.77 439.151 2407.39 441.598C2405.54 453.407 2403.76 465.194 2401.65 476.715C2400.92 480.762 2400.03 484.743 2399.16 488.724C2399.16 486.055 2399.16 483.809 2399.16 483.476C2398.18 472.956 2390.11 453.229 2378.56 450.649C2376.64 450.277 2374.65 450.316 2372.74 450.762C2370.82 451.209 2369.03 452.053 2367.46 453.241C2365.89 454.428 2364.6 455.932 2363.65 457.654C2362.71 459.377 2362.13 461.279 2361.97 463.237C2361 471.51 2366.71 480.051 2372.4 485.477C2378.1 490.904 2392.09 496.197 2396.87 497.976C2395.87 502.024 2394.87 506.071 2393.71 509.941C2392.84 512.565 2392.22 515.145 2391.22 517.747L2388.42 525.42C2386.48 530.224 2384.5 535.206 2382.48 539.876C2381.1 543.101 2379.72 546.17 2378.34 549.261C2379.12 545.236 2380.57 537.319 2380.57 536.651C2381.19 526.11 2376.12 505.382 2365.18 501.067C2363.33 500.404 2361.36 500.138 2359.39 500.288C2357.43 500.437 2355.53 500.998 2353.8 501.934C2352.07 502.87 2350.56 504.16 2349.36 505.719C2348.16 507.279 2347.31 509.074 2346.85 510.986C2344.63 519.015 2349.07 528.334 2353.79 534.583C2359.08 541.477 2375.38 550.284 2377.43 551.374C2375.21 556.467 2372.85 561.427 2370.62 566.053C2364.18 579.552 2358.22 590.895 2353.5 599.591L2359.93 604.172C2364.6 595.276 2370.56 583.244 2376.96 569.011C2379.32 563.829 2381.74 558.246 2384.17 552.486C2389.96 553.916 2395.82 554.992 2401.74 555.711C2402.85 564.607 2411.01 579.819 2412.08 581.776C2407.34 584.779 2402.72 587.648 2398.29 590.272C2385.73 597.834 2374.67 603.927 2366.02 608.531L2373.03 613.535C2381.14 608.954 2390.97 603.171 2401.94 596.255C2406.76 593.23 2411.86 589.894 2417.04 586.424C2418.57 588.115 2431.25 601.681 2439.28 605.062C2446.55 608.108 2456.65 609.999 2463.88 605.796C2465.61 604.872 2467.13 603.593 2468.34 602.042C2469.54 600.492 2470.41 598.704 2470.88 596.796C2471.34 594.888 2471.4 592.903 2471.05 590.97C2470.7 589.037 2469.95 587.2 2468.84 585.579C2461.9 575.994 2440.59 576.416 2430.54 579.686C2429.96 579.886 2423.76 582.688 2419.89 584.534C2422 583.111 2424.07 581.732 2426.22 580.242C2430.52 577.306 2434.72 574.259 2439.24 571.012L2445.69 566.008C2447.91 564.362 2449.98 562.383 2452.16 560.559C2457.12 556.245 2461.94 551.663 2466.68 546.86C2469.26 550.596 2478.6 563.784 2485.34 567.921C2492.08 572.057 2501.77 575.438 2509.54 572.369C2511.39 571.718 2513.09 570.684 2514.51 569.333C2515.94 567.983 2517.07 566.347 2517.82 564.532C2518.58 562.717 2518.94 560.764 2518.89 558.799C2518.83 556.835 2518.37 554.904 2517.52 553.131C2512.12 542.612 2490.97 539.787 2480.56 541.5C2479.91 541.611 2472.57 543.724 2468.57 544.88C2471.39 542.011 2474.24 539.142 2477 536.118C2485.01 527.444 2492.83 518.326 2500.66 509.43C2503.06 506.672 2505.51 503.959 2507.91 501.245C2508.82 502.58 2519.57 518.481 2527.13 523.129C2533.8 527.244 2543.56 530.647 2551.35 527.577C2553.2 526.924 2554.89 525.888 2556.32 524.537C2557.74 523.186 2558.87 521.549 2559.62 519.735C2560.37 517.92 2560.73 515.967 2560.68 514.004C2560.62 512.041 2560.16 510.111 2559.31 508.34C2553.9 497.82 2532.75 494.996 2522.35 496.708C2521.57 496.82 2511 499.822 2508.36 500.712C2513.69 494.707 2519.05 488.769 2524.59 483.12C2532.02 475.469 2539.93 468.308 2548.28 461.68C2548.7 462.303 2559.84 478.961 2567.58 483.72C2574.25 487.835 2584.02 491.215 2591.8 488.168C2593.65 487.515 2595.35 486.479 2596.77 485.128C2598.2 483.776 2599.32 482.14 2600.07 480.325C2600.83 478.511 2601.19 476.558 2601.13 474.595C2601.08 472.632 2600.61 470.702 2599.76 468.931C2594.36 458.411 2573.21 455.587 2562.8 457.321C2562.11 457.321 2554.08 459.701 2550.28 460.857L2549.97 460.257C2558.56 453.816 2567.71 448.152 2577.3 443.332C2582.55 440.619 2587.71 438.328 2592.87 436.193C2594.63 439.507 2602.83 454.564 2609.33 459.612C2615.82 464.66 2624.89 468.886 2632.9 466.707C2634.81 466.261 2636.61 465.418 2638.17 464.232C2639.74 463.046 2641.04 461.545 2641.98 459.824C2642.93 458.104 2643.5 456.204 2643.67 454.248C2643.83 452.292 2643.58 450.323 2642.93 448.47C2638.71 437.35 2618.02 432.279 2607.48 432.902C2606.9 432.902 2601.1 433.903 2596.89 434.636C2599.12 433.725 2601.57 432.724 2603.79 431.879C2612.15 428.698 2619.98 426.296 2626.96 424.228C2630.92 423.072 2634.55 422.004 2637.93 421.248C2641.35 423.605 2655.25 432.924 2663.21 434.37C2671.18 435.815 2681.25 435.459 2687.39 429.81C2688.88 428.533 2690.09 426.956 2690.93 425.181C2691.77 423.407 2692.23 421.475 2692.28 419.511C2692.32 417.548 2691.96 415.596 2691.2 413.784C2690.44 411.972 2689.31 410.34 2687.88 408.994C2678.98 401.143 2658.32 406.125 2649.23 411.462C2648.42 411.929 2636.97 420.581 2637.15 420.714L2637.35 420.848C2634.08 421.604 2630.57 422.471 2626.74 423.472C2619.74 425.407 2611.8 427.653 2603.34 430.656C2594.2 433.842 2585.24 437.555 2576.52 441.775C2566.74 446.428 2557.38 451.936 2548.57 458.233L2548.28 458.478C2550.32 455.698 2555.84 447.736 2556.2 447.069C2561.18 437.75 2565.34 416.844 2557.13 408.327C2555.72 406.956 2554.04 405.895 2552.2 405.214C2550.36 404.533 2548.4 404.246 2546.44 404.371C2544.48 404.497 2542.56 405.033 2540.82 405.944C2539.08 406.855 2537.55 408.122 2536.34 409.661C2530.95 416.044 2531.02 426.319 2532.75 434.014C2534.71 442.687 2546.34 458.055 2547.28 459.278C2538.47 465.92 2530.12 473.142 2522.28 480.896C2517.68 485.344 2513.21 490.059 2508.76 494.796C2510.47 492.327 2511.96 490.103 2512.14 489.769C2517.12 480.473 2521.28 459.545 2513.07 451.05C2511.67 449.673 2510 448.607 2508.15 447.922C2506.31 447.237 2504.35 446.948 2502.39 447.074C2500.43 447.2 2498.52 447.738 2496.78 448.653C2495.04 449.568 2493.51 450.839 2492.3 452.384C2486.9 458.745 2486.96 469.02 2488.7 476.715C2490.43 484.41 2500.13 497.843 2502.73 501.312L2497.66 506.805C2489.61 515.701 2481.62 524.486 2473.51 532.915C2470.66 535.895 2467.72 538.72 2464.81 541.566C2466.32 539.342 2467.59 537.519 2467.75 537.118C2472.73 527.822 2476.89 506.894 2468.68 498.399C2467.28 497.023 2465.6 495.958 2463.76 495.273C2461.92 494.588 2459.95 494.298 2457.99 494.422C2456.03 494.546 2454.12 495.08 2452.38 495.992C2450.64 496.903 2449.11 498.17 2447.89 499.711C2442.5 506.094 2442.57 516.368 2444.31 524.064C2446.04 531.759 2454.78 543.879 2457.87 548.038C2454.8 550.84 2451.73 553.665 2448.62 556.267C2446.4 557.98 2444.51 559.781 2442.24 561.404L2435.68 566.253C2431.41 569.211 2427 572.258 2422.76 575.038C2419.8 576.972 2416.97 578.774 2414.1 580.598C2417 577.662 2422.51 571.813 2423 571.279C2428.29 563.64 2431.54 554.774 2432.43 545.525C2433.06 544.703 2433.61 543.824 2434.08 542.901C2435.01 541.171 2435.57 539.265 2435.71 537.305C2435.86 535.346 2435.6 533.377 2434.93 531.527C2434.27 529.677 2433.23 527.987 2431.87 526.568C2430.51 525.148 2428.87 524.029 2427.05 523.285C2415.93 519.126 2398.42 531.225 2391.86 539.498C2391.46 539.987 2387.86 545.747 2385.64 549.417C2386.62 547.06 2387.59 544.791 2388.57 542.345C2390.53 537.541 2392.35 532.693 2394.31 527.466C2395.18 524.909 2396.07 522.329 2396.93 519.727C2397.8 517.125 2398.51 514.345 2399.34 511.631C2401.09 505.271 2402.56 498.777 2403.9 492.171C2408.1 493.884 2423.16 499.733 2431.07 499.466C2438.99 499.199 2448.87 496.664 2453.74 489.836C2454.92 488.269 2455.76 486.47 2456.2 484.556C2456.65 482.642 2456.68 480.657 2456.31 478.729C2455.93 476.801 2455.15 474.973 2454.02 473.366C2452.9 471.758 2451.44 470.406 2449.75 469.398C2439.46 463.593 2420.26 472.912 2412.53 480.073C2412.04 480.54 2407.05 486.3 2404.39 489.525C2405.14 485.566 2405.94 481.607 2406.61 477.56C2408.48 465.884 2410.01 454.03 2411.61 442.198C2412.08 438.573 2412.61 434.97 2413.13 431.367C2414.62 431.99 2432.36 439.329 2441.24 439.018C2449.11 438.751 2459.03 436.216 2463.88 429.388C2465.06 427.822 2465.9 426.024 2466.35 424.111C2466.79 422.198 2466.83 420.214 2466.46 418.286C2466.08 416.358 2465.31 414.53 2464.18 412.921C2463.06 411.313 2461.6 409.959 2459.92 408.949C2449.6 403.167 2430.41 412.463 2422.67 419.647C2422.09 420.18 2414.93 428.543 2413.21 430.767C2414.35 422.827 2415.44 414.91 2417.04 407.148C2419.03 396.661 2421.7 386.313 2425.02 376.167C2425.71 376.457 2444.19 384.218 2453.29 383.907C2461.16 383.618 2471.08 381.105 2475.93 374.277C2477.12 372.709 2477.96 370.91 2478.4 368.995C2478.85 367.081 2478.89 365.094 2478.51 363.164C2478.14 361.235 2477.36 359.405 2476.24 357.795C2475.11 356.184 2473.66 354.829 2471.97 353.816C2461.65 348.034 2442.48 357.33 2434.72 364.514C2434.21 364.981 2428.76 371.319 2426.22 374.388L2425.65 374.055C2429.21 363.949 2433.68 354.184 2438.99 344.876C2441.88 339.716 2444.91 334.935 2447.89 330.353C2451.18 332.155 2466.32 340.183 2474.57 340.828C2482.45 341.406 2492.61 339.983 2498.15 333.734C2499.5 332.306 2500.53 330.61 2501.18 328.757C2501.83 326.903 2502.08 324.934 2501.92 322.977C2501.76 321.019 2501.19 319.118 2500.24 317.396C2499.3 315.674 2498 314.171 2496.44 312.984C2486.83 306.089 2466.75 313.228 2458.25 319.522C2457.81 319.856 2453.49 323.837 2450.4 326.795C2451.8 324.749 2453.22 322.614 2454.63 320.679C2459.83 313.428 2465.06 307.09 2469.7 301.508C2472.4 298.372 2474.89 295.57 2477.22 292.99C2481.38 292.99 2498.13 293.168 2505.56 289.987C2512.98 286.807 2521.12 280.936 2523.21 272.84C2523.75 270.948 2523.89 268.964 2523.61 267.016C2523.33 265.068 2522.65 263.201 2521.6 261.537C2520.55 259.872 2519.16 258.448 2517.52 257.357C2515.88 256.265 2514.03 255.532 2512.09 255.204C2500.4 253.514 2485.85 269.126 2481.2 278.601C2480.8 279.423 2476.02 292.968 2476.22 292.968H2476.49C2474.26 295.414 2471.71 298.061 2469.08 301.019C2464.3 306.49 2458.92 312.739 2453.51 319.9C2447.62 327.577 2442.18 335.589 2437.21 343.897C2431.62 353.176 2426.86 362.933 2423 373.054L2422.87 373.432C2423.07 369.963 2423.24 360.288 2423.18 359.532C2422.2 349.012 2414.13 329.286 2402.58 326.728C2400.66 326.356 2398.67 326.394 2396.76 326.839C2394.85 327.284 2393.05 328.127 2391.49 329.312C2389.92 330.497 2388.62 331.998 2387.68 333.718C2386.73 335.438 2386.16 337.337 2385.99 339.294C2385.13 347.589 2390.84 356.129 2396.53 361.578Z" fill="#9C9C9C"/>
<path d="M2531.04 753.069V745.619C2531.04 707.255 2579.61 705.587 2579.61 678.276C2579.61 666.422 2569.96 658.682 2555.59 658.682C2539.87 658.682 2529.93 667.245 2529.93 679.388V682.435C2529.93 685.459 2528.28 686.883 2525.24 686.883L2495.72 685.771C2492.97 685.771 2491.03 684.392 2491.03 682.479V679.432C2491.03 646.072 2517.52 623.143 2556.44 623.143C2594.51 623.143 2619.07 644.671 2619.07 676.941C2619.07 722.756 2569.67 723.045 2569.67 748.109V753.069C2569.75 753.703 2569.68 754.346 2569.47 754.95C2569.26 755.553 2568.92 756.102 2568.46 756.553C2568.01 757.005 2567.46 757.348 2566.86 757.558C2566.26 757.767 2565.61 757.837 2564.98 757.762H2535.73C2535.1 757.837 2534.46 757.767 2533.85 757.558C2533.25 757.348 2532.7 757.005 2532.25 756.553C2531.8 756.102 2531.46 755.553 2531.25 754.95C2531.04 754.346 2530.97 753.703 2531.04 753.069ZM2528.55 797.549C2528.55 785.406 2539.32 775.465 2552.28 775.465C2564.71 775.465 2575.74 785.406 2575.74 797.549C2575.74 809.692 2564.62 819.633 2552.01 819.633C2539.4 819.633 2528.55 809.647 2528.55 797.504V797.549Z" fill="#263238"/>
<path d="M1947.91 437.038V430.566C1947.91 397.206 1990.17 395.805 1990.17 372.075C1990.17 361.756 1981.78 355.062 1969.33 355.062C1955.65 355.062 1947.09 362.49 1947.09 373.032V375.678C1947.09 378.302 1945.66 379.503 1943.02 379.503L1917.37 378.547C1914.97 378.547 1913.3 377.346 1913.3 375.678V373.032C1913.3 344.12 1936.3 324.104 1970.1 324.104C2003.18 324.104 2024.53 342.807 2024.53 370.808C2024.53 410.595 1981.6 410.84 1981.6 432.657V436.972C1981.67 437.522 1981.61 438.079 1981.42 438.602C1981.24 439.125 1980.94 439.6 1980.55 439.991C1980.16 440.383 1979.69 440.681 1979.16 440.863C1978.64 441.044 1978.08 441.106 1977.53 441.041H1951.98C1951.44 441.104 1950.88 441.044 1950.37 440.866C1949.85 440.687 1949.38 440.396 1948.99 440.012C1948.6 439.628 1948.3 439.162 1948.11 438.647C1947.93 438.133 1947.86 437.583 1947.91 437.038ZM1945.69 475.625C1945.69 465.083 1955.03 456.454 1966.28 456.454C1977.07 456.454 1986.67 465.083 1986.67 475.625C1986.67 486.166 1977.07 494.796 1966.06 494.796C1960.83 494.927 1955.76 492.986 1951.95 489.395C1948.15 485.803 1945.92 480.853 1945.75 475.625H1945.69Z" fill="#DF4E4E"/>
<path d="M2484.69 181.834V178.565C2484.69 161.729 2506 160.996 2506 149.008C2506 143.804 2501.75 140.401 2495.46 140.401C2488.56 140.401 2484.2 144.16 2484.2 149.497V150.832C2484.2 152.166 2483.47 152.767 2482.14 152.767L2469.19 152.277C2467.97 152.277 2467.12 151.677 2467.12 150.832V149.497C2467.12 134.841 2478.76 124.789 2495.84 124.789C2512.54 124.789 2523.32 134.241 2523.32 148.408C2523.32 168.424 2501.64 168.624 2501.64 179.544V181.768C2501.67 182.046 2501.64 182.329 2501.55 182.593C2501.46 182.858 2501.31 183.098 2501.11 183.295C2500.91 183.492 2500.66 183.642 2500.4 183.731C2500.13 183.821 2499.85 183.849 2499.57 183.814H2486.74C2486.47 183.848 2486.19 183.821 2485.93 183.735C2485.67 183.649 2485.44 183.505 2485.24 183.315C2485.05 183.125 2484.89 182.894 2484.8 182.637C2484.7 182.381 2484.67 182.107 2484.69 181.834ZM2483.6 201.339C2483.46 199.259 2483.95 197.185 2485 195.386C2486.05 193.586 2487.62 192.145 2489.5 191.249C2491.38 190.353 2493.49 190.045 2495.55 190.363C2497.61 190.682 2499.53 191.613 2501.05 193.035C2502.58 194.457 2503.64 196.305 2504.1 198.338C2504.56 200.372 2504.39 202.496 2503.63 204.435C2502.86 206.374 2501.53 208.039 2499.81 209.212C2498.09 210.385 2496.05 211.013 2493.97 211.013C2492.65 211.061 2491.34 210.848 2490.11 210.387C2488.87 209.926 2487.74 209.226 2486.78 208.328C2485.81 207.429 2485.04 206.349 2484.49 205.15C2483.95 203.95 2483.65 202.655 2483.6 201.339Z" fill="#DF4E4E"/>
<path d="M1860.13 631.616V627.502C1860.13 606.285 1886.99 605.373 1886.99 590.25C1886.99 583.689 1881.66 579.419 1873.65 579.419C1864.95 579.419 1859.46 584.156 1859.46 590.873V592.541C1859.46 594.231 1858.55 594.987 1856.86 594.987L1840.53 594.387C1839 594.387 1837.93 593.608 1837.93 592.541V590.873C1837.93 572.413 1852.59 559.737 1874.12 559.737C1895.18 559.737 1908.74 571.635 1908.74 589.494C1908.74 614.825 1881.43 614.981 1881.43 628.881V631.616C1881.48 631.968 1881.44 632.326 1881.32 632.661C1881.21 632.996 1881.02 633.301 1880.77 633.552C1880.52 633.803 1880.21 633.993 1879.88 634.108C1879.54 634.224 1879.18 634.262 1878.83 634.218H1862.69C1862.34 634.254 1861.98 634.211 1861.66 634.092C1861.33 633.974 1861.03 633.782 1860.78 633.532C1860.54 633.282 1860.35 632.98 1860.24 632.649C1860.12 632.317 1860.09 631.964 1860.13 631.616V631.616ZM1858.75 656.191C1858.58 653.571 1859.19 650.959 1860.52 648.696C1861.86 646.432 1863.84 644.622 1866.21 643.5C1868.59 642.378 1871.24 641.998 1873.84 642.407C1876.43 642.817 1878.84 643.998 1880.75 645.796C1882.67 647.595 1884 649.928 1884.56 652.491C1885.13 655.055 1884.92 657.73 1883.94 660.169C1882.97 662.608 1881.29 664.698 1879.11 666.166C1876.93 667.635 1874.36 668.413 1871.74 668.401C1868.39 668.509 1865.14 667.284 1862.69 664.994C1860.25 662.705 1858.82 659.538 1858.7 656.191H1858.75Z" stroke="#263238" stroke-miterlimit="10"/>
<path d="M2064.74 247.709V244.885C2064.74 230.295 2083.22 229.65 2083.22 219.264C2083.22 214.816 2079.55 211.814 2074.08 211.814C2068.09 211.814 2064.31 215.061 2064.31 219.687V220.843C2064.31 222 2063.69 222.511 2062.53 222.511L2051.41 222.089C2050.37 222.089 2049.64 221.577 2049.64 220.843V219.687C2049.64 206.988 2059.71 198.27 2074.5 198.27C2089.29 198.27 2098.1 206.454 2098.1 218.731C2098.1 236.167 2079.3 236.278 2079.3 245.819V247.709C2079.33 247.95 2079.31 248.194 2079.23 248.423C2079.15 248.651 2079.02 248.859 2078.85 249.031C2078.67 249.202 2078.47 249.332 2078.24 249.411C2078.01 249.491 2077.76 249.517 2077.52 249.488H2066.4C2066.17 249.5 2065.94 249.46 2065.73 249.373C2065.51 249.286 2065.32 249.153 2065.16 248.984C2065 248.815 2064.88 248.613 2064.81 248.393C2064.73 248.173 2064.71 247.94 2064.74 247.709ZM2063.8 264.612C2063.7 262.835 2064.14 261.069 2065.06 259.543C2065.97 258.017 2067.33 256.801 2068.94 256.052C2070.56 255.303 2072.36 255.056 2074.11 255.342C2075.87 255.628 2077.5 256.434 2078.79 257.657C2080.09 258.879 2080.99 260.461 2081.37 262.199C2081.75 263.937 2081.61 265.75 2080.95 267.404C2080.3 269.058 2079.16 270.477 2077.69 271.478C2076.22 272.479 2074.48 273.016 2072.7 273.018C2070.4 273.096 2068.17 272.26 2066.49 270.692C2064.81 269.124 2063.82 266.953 2063.74 264.656L2063.8 264.612Z" fill="#263238"/>
<path d="M2393.89 857.419V854.594C2393.89 840.005 2412.37 839.382 2412.37 828.974C2412.37 824.526 2408.7 821.523 2403.23 821.523C2397.25 821.523 2393.47 824.77 2393.47 829.396V830.553C2393.47 831.709 2392.84 832.243 2391.69 832.243L2380.57 831.821C2379.52 831.821 2378.79 831.287 2378.79 830.553V829.396C2378.79 816.697 2388.86 807.979 2403.65 807.979C2418.44 807.979 2427.49 816.164 2427.49 828.462C2427.49 845.876 2408.7 845.987 2408.7 855.528V857.419C2408.73 857.66 2408.7 857.905 2408.62 858.135C2408.54 858.364 2408.41 858.573 2408.24 858.746C2408.07 858.919 2407.86 859.051 2407.64 859.133C2407.41 859.215 2407.16 859.245 2406.92 859.22H2395.8C2395.55 859.268 2395.29 859.255 2395.04 859.184C2394.8 859.112 2394.57 858.983 2394.39 858.807C2394.2 858.631 2394.06 858.414 2393.97 858.173C2393.88 857.931 2393.86 857.673 2393.89 857.419V857.419ZM2392.95 874.321C2392.86 872.544 2393.29 870.779 2394.21 869.253C2395.13 867.727 2396.48 866.511 2398.09 865.762C2399.71 865.013 2401.51 864.766 2403.27 865.052C2405.02 865.338 2406.65 866.144 2407.95 867.366C2409.24 868.589 2410.14 870.171 2410.52 871.909C2410.91 873.646 2410.76 875.459 2410.11 877.114C2409.45 878.768 2408.31 880.187 2406.84 881.188C2405.37 882.189 2403.63 882.725 2401.85 882.728C2399.56 882.782 2397.34 881.928 2395.68 880.353C2394.02 878.778 2393.05 876.61 2392.98 874.321H2392.95Z" stroke="#263238" stroke-miterlimit="10"/>
<path d="M2306.82 908.037C2306.66 907.57 2306.51 907.103 2306.33 906.636C2306.15 906.169 2306.02 905.679 2305.84 905.212C2305.66 904.745 2305.53 904.278 2305.35 903.811C2305.17 903.344 2305.04 902.855 2304.86 902.388C2304.68 901.921 2304.55 901.454 2304.37 900.987C2304.19 900.52 2304.06 900.03 2303.88 899.563L2303.39 898.162C2303.24 897.673 2303.06 897.206 2302.9 896.739L2302.41 895.338C2302.26 894.848 2302.08 894.381 2301.93 893.914L2301.44 892.513C2301.28 892.024 2301.1 891.557 2300.95 891.09L2300.48 889.6C2300.32 889.111 2300.15 888.643 2299.99 888.176L2299.48 886.775C2299.32 886.286 2299.17 885.819 2298.99 885.352C2298.81 884.885 2298.68 884.418 2298.5 883.951C2298.32 883.484 2298.19 882.995 2298.01 882.528C2297.83 882.06 2297.7 881.593 2297.52 881.126C2290.27 859.064 2267.85 842.874 2243.19 842.874C2219.28 842.874 2198.49 856.796 2189.81 876.412C2189.59 876.856 2189.39 877.323 2189.19 877.768L2188.59 879.147C2188.37 879.592 2188.17 880.037 2187.97 880.504C2187.77 880.971 2187.55 881.415 2187.35 881.86L2186.74 883.217C2186.52 883.684 2186.32 884.129 2186.12 884.596C2185.92 885.063 2185.7 885.485 2185.5 885.952C2185.3 886.419 2185.08 886.842 2184.88 887.309L2184.28 888.666C2184.05 889.111 2183.85 889.578 2183.65 890.022C2183.45 890.467 2183.23 890.934 2183.03 891.379L2182.43 892.758C2182.21 893.203 2182.01 893.647 2181.81 894.115C2181.61 894.582 2181.38 895.026 2181.18 895.471L2180.58 896.828C2180.36 897.295 2180.16 897.74 2179.96 898.207C2179.76 898.674 2179.54 899.096 2179.34 899.563L2178.74 900.92C2178.52 901.365 2178.32 901.832 2178.12 902.277C2177.92 902.721 2177.69 903.188 2177.49 903.656C2173.68 911.782 2171.72 920.655 2171.75 929.632C2171.75 965.438 2202.67 994.706 2240.9 994.706C2278.31 994.706 2310.84 965.438 2310.84 929.632C2310.84 922.805 2309.64 916.032 2307.31 909.616C2307.15 908.971 2307 908.504 2306.82 908.037Z" fill="#263238"/>
<path d="M2253.91 415.443C2139.22 415.443 2061.13 482.942 2061.13 581.376V590.272C2061.15 591.742 2061.55 593.182 2062.29 594.452C2063.03 595.722 2064.09 596.779 2065.36 597.522C2065.84 597.984 2066.36 598.401 2066.92 598.767C2067.4 599.236 2067.93 599.653 2068.49 600.013C2068.98 600.481 2069.51 600.899 2070.07 601.258C2070.55 601.732 2071.08 602.15 2071.65 602.504C2072.13 602.972 2072.65 603.389 2073.21 603.749C2073.69 604.225 2074.22 604.65 2074.79 605.017C2075.28 605.479 2075.8 605.896 2076.37 606.262C2076.85 606.729 2077.38 607.147 2077.95 607.508C2078.42 607.975 2078.94 608.392 2079.5 608.753C2080.03 609.257 2080.6 609.704 2081.22 610.088C2081.67 610.501 2082.15 610.88 2082.66 611.222C2083.15 611.684 2083.68 612.101 2084.24 612.467C2084.72 612.929 2085.24 613.346 2085.8 613.713C2086.28 614.175 2086.81 614.592 2087.38 614.958C2087.86 615.425 2088.39 615.843 2088.96 616.204C2089.43 616.671 2089.95 617.088 2090.51 617.449C2091 617.916 2091.52 618.333 2092.09 618.694C2092.57 619.161 2093.09 619.579 2093.65 619.94C2094.14 620.402 2094.66 620.819 2095.23 621.185C2095.7 621.652 2096.22 622.07 2096.78 622.431C2099.35 624.692 2102.71 625.857 2106.12 625.678L2177.65 628.347C2185.01 628.347 2189.01 625.011 2189.01 617.649V610.31C2189.01 580.887 2213.08 560.181 2251.29 560.181C2286.05 560.181 2309.44 578.885 2309.44 607.641C2309.44 610.918 2309.13 614.187 2308.51 617.405C2272.61 664.464 2179.18 685.214 2179.18 776.554V798.527C2179.18 807.423 2184.05 812.338 2193.02 812.338H2279.13C2288.03 812.338 2292.96 807.468 2292.96 798.527V783.871C2292.96 709.856 2438.57 709.033 2438.57 574.014C2438.57 478.872 2366.15 415.443 2253.91 415.443Z" fill="#263238"/>
<path d="M2179.07 798.572V776.599C2179.07 663.53 2322.23 658.727 2322.23 578.129C2322.23 543.145 2293.76 520.305 2251.46 520.305C2205.09 520.305 2175.85 545.525 2175.85 581.309V590.205C2175.85 599.101 2170.95 603.238 2162.01 603.238L2074.97 599.968C2066.85 599.968 2061.15 595.899 2061.15 590.205V581.309C2061.15 482.875 2139.24 415.376 2253.93 415.376C2366.18 415.376 2438.52 478.805 2438.52 573.992C2438.52 709.011 2292.92 709.834 2292.92 783.849V798.505C2292.92 807.401 2288.02 812.316 2279.08 812.316H2192.9C2183.94 812.383 2179.07 807.512 2179.07 798.572ZM2171.75 929.632C2171.75 893.848 2203.47 864.558 2241.7 864.558C2278.31 864.558 2310.84 893.848 2310.84 929.632C2310.84 965.416 2278.24 994.595 2240.9 994.595C2202.62 994.595 2171.75 965.327 2171.75 929.632Z" fill="#DF4E4E" stroke="#DF4E4E" stroke-miterlimit="10"/>
<path d="M2144.51 424.45L2139.86 434.592C2139.86 434.592 2112.86 437.505 2112.86 439.529C2112.86 441.553 2113.15 455.497 2114.62 456.076C2115.74 456.51 2116.97 456.51 2118.09 456.076L2157.85 445.912L2161.64 427.92L2144.51 424.45Z" fill="white" stroke="#263238" stroke-linecap="round" stroke-linejoin="round"/>
<path d="M2136.95 442.576C2132.01 446.621 2126.68 450.167 2121.05 453.162C2114.62 456.053 2114.38 460.435 2116.42 460.435C2118.47 460.435 2136.62 452.829 2136.62 452.829C2136.62 452.829 2153.1 448.514 2155.48 447.202C2157.85 445.89 2158.12 438.595 2158.12 438.595" fill="white"/>
<path d="M2136.95 442.576C2132.01 446.621 2126.68 450.167 2121.05 453.162C2114.62 456.053 2114.38 460.435 2116.42 460.435C2118.47 460.435 2136.62 452.829 2136.62 452.829C2136.62 452.829 2153.1 448.514 2155.48 447.202C2157.85 445.89 2158.12 438.595 2158.12 438.595" stroke="#263238" stroke-linecap="round" stroke-linejoin="round"/>
<path d="M2168.26 229.583L2151.67 356.752L2140.13 425.607L2165.75 431.656L2184.85 350.213L2193.91 298.95L2168.26 229.583Z" fill="#7D7D7D" stroke="#263238" stroke-linecap="round" stroke-linejoin="round"/>
<path d="M2302.15 137.51L2292.03 135.909L2271.3 128.058L2270.54 152.678L2302.68 155.636L2302.15 137.51Z" fill="white" stroke="#263238" stroke-linecap="round" stroke-linejoin="round"/>
<path d="M2183.85 588.47C2176.31 597.264 2169.27 606.471 2162.75 616.048C2154.19 629.125 2157.21 643.181 2167.77 646.717C2178.34 650.253 2191.88 640.668 2195.42 633.128C2198.95 625.589 2197.93 621.586 2203.45 614.046C2208.96 606.507 2213.5 598.968 2211.5 588.915C2209.5 578.863 2189.28 581.443 2183.85 588.47Z" fill="#7D7D7D" stroke="#263238" stroke-linecap="round" stroke-linejoin="round"/>
<path d="M2194.4 635.019C2193.68 633.507 2192.86 631.905 2191.88 630.193C2183.81 615.981 2169.64 617.116 2160.75 619.762C2154.9 631.705 2158.23 643.581 2167.82 646.784C2177.4 649.986 2189.77 642.158 2194.4 635.019Z" fill="white" stroke="#263238" stroke-linecap="round" stroke-linejoin="round"/>
<path d="M2191.88 630.193C2188.88 634.641 2184.85 646.784 2169.26 641.757C2164.92 640.641 2161.03 638.191 2158.14 634.752C2158.48 637.464 2159.57 640.028 2161.29 642.154C2163 644.28 2165.28 645.884 2167.86 646.784C2178.4 650.298 2191.97 640.734 2195.51 633.195C2199.04 625.656 2198.02 621.653 2203.54 614.113C2209.05 606.574 2213.59 599.034 2211.59 588.982C2211.59 601.036 2207.14 603.038 2201.53 609.576C2195.93 616.115 2194.91 625.656 2191.88 630.193Z" fill="white" stroke="#263238" stroke-linecap="round" stroke-linejoin="round"/>
<path d="M2332.17 588.47C2339.71 597.264 2346.76 606.471 2353.28 616.048C2361.84 629.125 2358.82 643.181 2348.25 646.717C2337.69 650.253 2324.14 640.668 2320.61 633.128C2317.07 625.589 2318.09 621.586 2312.58 614.046C2307.06 606.507 2302.53 598.968 2304.53 588.915C2306.53 578.863 2326.66 581.443 2332.17 588.47Z" fill="#7D7D7D" stroke="#263238" stroke-linecap="round" stroke-linejoin="round"/>
<path d="M2321.65 635.019C2322.34 633.507 2323.16 631.905 2324.14 630.193C2332.22 615.981 2346.38 617.116 2355.28 619.762C2361.13 631.705 2357.79 643.581 2348.21 646.784C2338.62 649.986 2326.26 642.158 2321.65 635.019Z" fill="white" stroke="#263238" stroke-linecap="round" stroke-linejoin="round"/>
<path d="M2324.14 630.193C2327.15 634.641 2331.17 646.784 2346.76 641.757C2351.11 640.641 2355 638.191 2357.88 634.752C2357.54 637.464 2356.46 640.028 2354.74 642.154C2353.02 644.28 2350.74 645.884 2348.16 646.784C2337.62 650.298 2324.05 640.734 2320.52 633.195C2316.98 625.656 2318 621.653 2312.49 614.113C2306.97 606.574 2302.44 599.034 2304.44 588.982C2304.44 601.036 2308.89 603.038 2314.49 609.576C2320.1 616.115 2321.12 625.656 2324.14 630.193Z" fill="white" stroke="#263238" stroke-linecap="round" stroke-linejoin="round"/>
<path d="M2355.75 415.065C2355.75 406.013 2340.18 395.961 2340.18 395.961C2316.72 372.097 2274.37 375.256 2258.74 377.391C2243.17 375.167 2200.78 372.097 2177.31 395.961C2177.31 395.961 2161.75 406.013 2161.75 415.065C2161.75 424.117 2181.36 587.47 2181.36 587.47C2181.36 587.47 2180.85 596.01 2194.93 597.01C2209.01 598.011 2214.94 589.983 2214.94 589.983L2220.48 451.761C2220.48 451.761 2243.1 435.659 2247.17 435.17C2248.64 434.97 2250.55 434.659 2252.69 434.392V434.659C2256.67 433.828 2260.78 433.828 2264.76 434.659V434.392C2266.99 434.659 2268.79 434.97 2270.28 435.17C2274.3 435.659 2296.97 451.761 2296.97 451.761L2302.5 589.983C2302.5 589.983 2308.53 598.011 2322.52 597.01C2336.51 596.01 2336.09 587.47 2336.09 587.47C2336.09 587.47 2355.75 424.117 2355.75 415.065Z" fill="#263238" stroke="#263238" stroke-linecap="round" stroke-linejoin="round"/>
<path d="M2296.94 451.761C2296.94 451.761 2293.92 418.579 2308.51 406.013" stroke="#707070" stroke-linecap="round" stroke-linejoin="round"/>
<path d="M2220.55 451.761C2220.55 451.761 2222.06 424.117 2219.04 414.064C2216.01 404.012 2210.99 399.987 2210.99 399.987" stroke="#707070" stroke-linecap="round" stroke-linejoin="round"/>
<path d="M2239.14 385.908C2239.14 385.908 2255.22 404.501 2258.25 420.091" stroke="#707070" stroke-linecap="round" stroke-linejoin="round"/>
<path d="M2274.33 386.976C2274.33 386.976 2265.27 397.029 2264.27 404.568" stroke="#707070" stroke-linecap="round" stroke-linejoin="round"/>
<path d="M2251.71 191.397C2251.71 191.397 2237.14 189.374 2232.11 194.4C2227.09 199.426 2209.99 217.952 2209.99 217.952L2219.04 377.791C2219.04 377.791 2239.65 385.842 2257.25 385.842C2274.84 385.842 2294.94 379.303 2299.5 375.789C2304.06 372.275 2300.01 200.872 2300.01 200.872C2300.01 200.872 2262.67 189.885 2251.71 191.397Z" fill="#DF4E4E" stroke="#263238" stroke-linecap="round" stroke-linejoin="round"/>
<path d="M2278.35 194.911C2286 193.75 2293.72 193.074 2301.46 192.888C2311.51 192.888 2321.47 193.399 2321.47 193.399L2346.61 169.269L2296.03 157.704L2300.06 134.597C2300.06 134.597 2337.24 132.083 2355.84 135.597C2374.43 139.111 2403.58 148.163 2405.1 148.163C2406.61 148.163 2408.61 153.701 2407.1 157.704C2405.59 161.707 2358.3 214.016 2344.18 227.582C2334.94 236.636 2326.22 246.199 2318.05 256.227L2311.6 368.317C2311.6 368.317 2328.19 377.368 2331.22 380.371C2334.24 383.373 2337.75 395.45 2337.75 395.45C2337.75 395.45 2307.09 382.884 2299.03 381.883C2290.98 380.882 2285.98 380.371 2284.47 377.435C2282.95 374.499 2270.39 240.214 2270.39 240.214L2270.9 197.491C2270.9 197.491 2270.81 194.911 2278.35 194.911Z" fill="#7D7D7D" stroke="#263238" stroke-linecap="round" stroke-linejoin="round"/>
<path d="M2308.51 263.767L2281.35 267.281L2283.87 277.333L2297.46 280.847L2310.51 274.82L2308.51 263.767Z" stroke="#263238" stroke-linecap="round" stroke-linejoin="round"/>
<path d="M2324.08 203.451L2318.05 256.227L2333.64 211.502" stroke="#263238" stroke-linecap="round" stroke-linejoin="round"/>
<path d="M2346.69 169.269C2346.69 169.269 2359.26 171.782 2378.36 164.242" stroke="#263238" stroke-linecap="round" stroke-linejoin="round"/>
<path d="M2359.77 172.783C2368.03 173.012 2376.28 172.341 2384.39 170.781" stroke="#263238" stroke-linecap="round" stroke-linejoin="round"/>
<path d="M2234.63 190.886L2237.14 227.582C2239.43 230.595 2242.4 233.028 2245.8 234.686C2249.2 236.343 2252.95 237.178 2256.73 237.123C2269.3 236.634 2270.81 227.582 2270.81 227.582V197.425L2234.63 190.886Z" fill="white" stroke="#263238" stroke-linecap="round" stroke-linejoin="round"/>
<path d="M2271.3 209.99L2270.3 240.192L2280.86 223.601C2280.86 223.601 2292.43 238.168 2295.43 237.679C2298.43 237.19 2293.43 231.14 2292.43 225.625C2291.43 220.109 2282.87 200.471 2281.87 194.956C2280.86 189.44 2271.3 188.417 2270.75 190.93C2270.47 193.101 2270.47 195.298 2270.75 197.469L2271.3 209.99Z" fill="#7D7D7D" stroke="#263238" stroke-linecap="round" stroke-linejoin="round"/>
<path d="M2236.63 237.123C2236.63 237.123 2238.63 377.858 2233.6 379.459C2228.58 381.06 2208.47 381.483 2195.8 387.51C2183.12 393.537 2177.2 396.05 2177.2 396.05C2177.2 396.05 2183.23 381.483 2190.28 374.944C2194.97 370.733 2200.2 367.179 2205.85 364.38L2192.79 297.038C2192.79 297.038 2168.66 233.187 2168.15 229.673C2167.64 226.159 2213.9 200.027 2223.44 195.49C2232.98 190.953 2235.52 195 2235.52 195L2236.63 237.123Z" fill="#7D7D7D" stroke="#263238" stroke-linecap="round" stroke-linejoin="round"/>
<path d="M2224.06 188.373C2224.06 188.373 2212.01 226.581 2210.99 231.607C2209.96 236.634 2210.99 236.634 2214.52 233.097C2218.06 229.561 2227.09 221.043 2227.09 221.043L2236.63 237.123L2236.12 207.477V190.374C2236.12 190.374 2235.63 183.347 2224.06 188.373Z" fill="#7D7D7D" stroke="#263238" stroke-linecap="round" stroke-linejoin="round"/>
<path d="M2200.44 270.816H2230.09L2229.6 282.871L2216.52 287.385L2199.93 282.871L2200.44 270.816Z" stroke="#263238" stroke-linecap="round" stroke-linejoin="round"/>
<path d="M2281.86 138.622C2281.86 138.622 2288.89 169.269 2290.41 174.206C2291.92 179.143 2282.38 198.848 2279.29 203.362C2278.11 205.32 2276.49 206.976 2274.56 208.196C2272.63 209.417 2270.44 210.168 2268.17 210.39C2264.65 210.39 2245.55 203.874 2241.01 200.849C2236.47 197.825 2231.98 194.311 2231.98 194.311C2229.84 195.286 2227.47 195.615 2225.14 195.26C2222.82 194.904 2220.65 193.879 2218.9 192.309C2212.88 186.771 2204.83 180.233 2206.83 175.718C2207.8 173.503 2209.43 171.64 2211.5 170.383C2213.57 169.126 2215.98 168.535 2218.39 168.69C2223.93 168.69 2221.93 168.179 2221.93 168.179C2221.93 168.179 2211.88 153.612 2211.88 142.047C2211.88 130.482 2233.47 122.031 2246.04 122.031C2254.72 122.393 2263.26 124.44 2271.17 128.058L2281.86 138.622Z" fill="white" stroke="#263238" stroke-linecap="round" stroke-linejoin="round"/>
<path d="M2264.27 150.165L2273.32 167.267L2264.27 173.294L2260.25 168.268" stroke="#263238" stroke-linecap="round" stroke-linejoin="round"/>
<path d="M2280.86 165.755C2280.86 165.755 2281.35 169.78 2275.33 176.319" stroke="#263238" stroke-linecap="round" stroke-linejoin="round"/>
<path d="M2254.73 156.458C2254.73 158.816 2253.71 160.728 2252.51 160.728C2251.31 160.728 2250.28 158.816 2250.28 156.458C2250.28 154.101 2251.31 152.188 2252.51 152.188C2253.71 152.188 2254.73 154.101 2254.73 156.458Z" fill="#263238"/>
<path d="M2270.55 152.678C2271.8 152.678 2272.81 150.766 2272.81 148.408C2272.81 146.049 2271.8 144.137 2270.55 144.137C2269.29 144.137 2268.28 146.049 2268.28 148.408C2268.28 150.766 2269.29 152.678 2270.55 152.678Z" fill="#263238"/>
<path d="M2227.58 112.468C2227.58 112.468 2195.95 124.032 2194.91 138.622C2193.86 153.211 2223.06 173.294 2224.57 175.807C2226.09 178.32 2230.6 172.783 2230.6 172.783C2229.6 171.432 2228.9 169.88 2228.55 168.233C2228.2 166.587 2228.21 164.884 2228.58 163.242C2230.09 158.215 2236.63 152.122 2236.63 149.675C2236.63 147.229 2229.09 151.677 2229.09 144.137C2229.09 136.598 2247.68 132.083 2258.74 132.573C2269.79 133.062 2279.35 151.677 2287.4 142.625C2295.45 133.573 2283.87 131.083 2283.87 131.083C2283.87 131.083 2299.43 129.059 2299.43 121.03C2299.43 113.001 2291.38 107.441 2287.87 107.441C2284.36 107.441 2274.82 113.491 2274.82 106.952C2274.82 100.414 2284.36 97.3889 2275.3 86.9361C2266.25 76.4833 2254.71 86.9361 2254.71 90.9616C2254.71 94.987 2251.69 102.504 2249.68 102.504C2247.68 102.504 2241.63 93.4747 2234.61 98.5009C2232.49 100.181 2230.77 102.3 2229.56 104.712C2228.34 107.123 2227.67 109.77 2227.58 112.468Z" fill="#263238" stroke="#263238" stroke-linecap="round" stroke-linejoin="round"/>
<path d="M2240.65 151.187L2256.73 145.138" stroke="#263238" stroke-linecap="round" stroke-linejoin="round"/>
<path d="M2259.25 138.11C2258.94 136.532 2259.19 134.897 2259.96 133.484" stroke="#263238" stroke-linecap="round" stroke-linejoin="round"/>
<path d="M2259.96 133.44C2261.09 131.216 2263.65 128.347 2269.3 126.012" stroke="white" stroke-linecap="round" stroke-linejoin="round"/>
<defs>
<linearGradient id="paint0_linear" x1="2907.64" y1="1355.98" x2="-132.389" y2="-11.6026" gradientUnits="userSpaceOnUse">
<stop offset="0.0134343" stop-color="#C91C1C"/>
<stop offset="1" stop-color="#FF7A7A"/>
</linearGradient>
</defs>
</svg>
